<svg width="56" height="56" viewBox="0 0 56 56" fill="none" xmlns="http://www.w3.org/2000/svg">
<rect width="56" height="56" rx="28" fill="url(#paint0_linear_3476_10587)"/>
<g clip-path="url(#clip0_3476_10587)">
<path d="M36.1323 20.799H21.8931C20.3246 20.8007 18.8208 21.4244 17.7115 22.5332C16.6022 23.6421 15.9779 25.1456 15.9756 26.7141C15.9756 27.0125 16.0941 27.2986 16.3051 27.5096C16.5161 27.7206 16.8022 27.8391 17.1006 27.8391C17.399 27.8391 17.6851 27.7206 17.8961 27.5096C18.1071 27.2986 18.2256 27.0125 18.2256 26.7141C18.2267 25.7418 18.6135 24.8097 19.301 24.1222C19.9886 23.4347 20.9208 23.0481 21.8931 23.0471H36.1323C36.1365 23.0471 33.2875 25.9032 33.2875 25.9032C32.8187 26.3719 32.8225 27.1388 33.3264 27.5738C33.5415 27.759 33.8187 27.856 34.1024 27.8454C34.386 27.8348 34.6552 27.7174 34.8559 27.5166L39.6371 22.7401C39.7446 22.6327 39.8299 22.5052 39.888 22.3648C39.9462 22.2245 39.9761 22.074 39.9761 21.9221C39.9761 21.7702 39.9462 21.6197 39.888 21.4794C39.8299 21.339 39.7446 21.2115 39.6371 21.1041L34.8564 16.328C34.7517 16.2235 34.6275 16.1407 34.4908 16.0842C34.3542 16.0277 34.2077 15.9987 34.0598 15.9988C33.9119 15.9989 33.7655 16.0281 33.629 16.0848C33.4924 16.1415 33.3683 16.2246 33.2638 16.3292C33.1593 16.4338 33.0764 16.5581 33.0199 16.6947C32.9635 16.8314 32.9344 16.9778 32.9345 17.1257C32.9347 17.2736 32.9639 17.42 33.0206 17.5566C33.0773 17.6932 33.1603 17.8173 33.265 17.9218L36.1323 20.799Z" fill="black"/>
<path d="M19.8174 35.2008H34.0567C35.6251 35.1991 37.1289 34.5754 38.2382 33.4665C39.3475 32.3577 39.9718 30.8541 39.9742 29.2856C39.9742 28.9873 39.8556 28.7011 39.6447 28.4902C39.4337 28.2792 39.1475 28.1606 38.8492 28.1606C38.5508 28.1606 38.2646 28.2792 38.0537 28.4902C37.8427 28.7011 37.7242 28.9873 37.7242 29.2856C37.723 30.2579 37.3363 31.1901 36.6487 31.8776C35.9612 32.565 35.029 32.9517 34.0567 32.9527H19.8174C19.8132 32.9527 22.6623 30.0966 22.6623 30.0966C23.131 29.6278 23.1273 28.861 22.6234 28.426C22.4083 28.2408 22.1311 28.1437 21.8474 28.1544C21.5637 28.165 21.2946 28.2824 21.0939 28.4831L16.3126 33.2597C16.2051 33.3671 16.1199 33.4946 16.0617 33.635C16.0036 33.7753 15.9736 33.9258 15.9736 34.0777C15.9736 34.2296 16.0036 34.38 16.0617 34.5204C16.1199 34.6607 16.2051 34.7883 16.3126 34.8956L21.0939 39.6722C21.3052 39.8832 21.5917 40.0016 21.8903 40.0013C22.1889 40.001 22.4752 39.8821 22.6862 39.6708C22.8972 39.4595 23.0155 39.173 23.0153 38.8743C23.015 38.5757 22.8961 38.2894 22.6848 38.0785L19.8174 35.2008Z" fill="black"/>
</g>
<defs>
<linearGradient id="paint0_linear_3476_10587" x1="0" y1="28" x2="56" y2="28" gradientUnits="userSpaceOnUse">
<stop offset="0.0302" stop-color="#996B55"/>
<stop offset="0.3451" stop-color="#E5AB8E"/>
<stop offset="0.4755" stop-color="#E5AB8E"/>
<stop offset="0.9298" stop-color="#996B55"/>
</linearGradient>
<clipPath id="clip0_3476_10587">
<rect width="24" height="24" fill="white" transform="translate(16 16)"/>
</clipPath>
</defs>
</svg>
